<mxfile host="app.diagrams.net" modified="2022-12-07T17:27:44.610Z" agent="5.0 (Macintosh; Intel Mac OS X 10_15_7) AppleWebKit/537.36 (KHTML, like Gecko) Chrome/107.0.0.0 Safari/537.36" version="20.6.0" etag="9D4UdZK3Lg-InQiCEq5U" type="github">
  <diagram id="5UlCIdpNC4QQxkkB93B9" name="第 1 页">
    <mxGraphModel dx="1154" dy="739" grid="1" gridSize="10" guides="1" tooltips="1" connect="1" arrows="1" fold="1" page="1" pageScale="1" pageWidth="827" pageHeight="1169" math="0" shadow="0">
      <root>
        <mxCell id="0" />
        <mxCell id="1" parent="0" />
        <mxCell id="rv7XRUc5QI8uWNA1ESyG-1" value="69e00afe-20af-4909-976a-7a77a327f10a" style="rounded=0;whiteSpace=wrap;html=1;" vertex="1" parent="1">
          <mxGeometry x="80" y="40" width="120" height="60" as="geometry" />
        </mxCell>
        <mxCell id="rv7XRUc5QI8uWNA1ESyG-3" style="edgeStyle=orthogonalEdgeStyle;rounded=0;orthogonalLoop=1;jettySize=auto;html=1;exitX=0;exitY=0.5;exitDx=0;exitDy=0;entryX=1;entryY=0.5;entryDx=0;entryDy=0;" edge="1" parent="1" source="rv7XRUc5QI8uWNA1ESyG-2" target="rv7XRUc5QI8uWNA1ESyG-1">
          <mxGeometry relative="1" as="geometry" />
        </mxCell>
        <mxCell id="rv7XRUc5QI8uWNA1ESyG-2" value="a63f6984-9f50-4e16-8cd0-19d28fcfdf3e" style="rounded=0;whiteSpace=wrap;html=1;" vertex="1" parent="1">
          <mxGeometry x="250" y="40" width="120" height="60" as="geometry" />
        </mxCell>
        <mxCell id="rv7XRUc5QI8uWNA1ESyG-5" style="edgeStyle=orthogonalEdgeStyle;rounded=0;orthogonalLoop=1;jettySize=auto;html=1;exitX=0;exitY=0.5;exitDx=0;exitDy=0;entryX=0.75;entryY=1;entryDx=0;entryDy=0;" edge="1" parent="1" source="rv7XRUc5QI8uWNA1ESyG-4" target="rv7XRUc5QI8uWNA1ESyG-1">
          <mxGeometry relative="1" as="geometry" />
        </mxCell>
        <mxCell id="rv7XRUc5QI8uWNA1ESyG-4" value="32861307-16e2-4fbb-8504-af3f49ad46c2" style="rounded=0;whiteSpace=wrap;html=1;" vertex="1" parent="1">
          <mxGeometry x="250" y="130" width="120" height="60" as="geometry" />
        </mxCell>
        <mxCell id="rv7XRUc5QI8uWNA1ESyG-8" style="edgeStyle=orthogonalEdgeStyle;rounded=0;orthogonalLoop=1;jettySize=auto;html=1;exitX=0;exitY=0.5;exitDx=0;exitDy=0;entryX=0.5;entryY=1;entryDx=0;entryDy=0;" edge="1" parent="1" source="rv7XRUc5QI8uWNA1ESyG-6" target="rv7XRUc5QI8uWNA1ESyG-1">
          <mxGeometry relative="1" as="geometry" />
        </mxCell>
        <mxCell id="rv7XRUc5QI8uWNA1ESyG-6" value="c4d0315c-f6e1-4b75-ab39-2569606d657c" style="rounded=0;whiteSpace=wrap;html=1;" vertex="1" parent="1">
          <mxGeometry x="250" y="220" width="120" height="60" as="geometry" />
        </mxCell>
        <mxCell id="rv7XRUc5QI8uWNA1ESyG-9" value="a9dd4fd4-73b6-464f-87b7-dc408c19430d" style="rounded=0;whiteSpace=wrap;html=1;" vertex="1" parent="1">
          <mxGeometry x="90" y="320" width="120" height="60" as="geometry" />
        </mxCell>
        <mxCell id="rv7XRUc5QI8uWNA1ESyG-11" style="edgeStyle=orthogonalEdgeStyle;rounded=0;orthogonalLoop=1;jettySize=auto;html=1;exitX=0;exitY=0.5;exitDx=0;exitDy=0;entryX=1;entryY=0.5;entryDx=0;entryDy=0;" edge="1" parent="1" source="rv7XRUc5QI8uWNA1ESyG-10" target="rv7XRUc5QI8uWNA1ESyG-9">
          <mxGeometry relative="1" as="geometry" />
        </mxCell>
        <mxCell id="rv7XRUc5QI8uWNA1ESyG-10" value="d7ab6c5b-d574-4e82-b243-ebe30b342f15" style="rounded=0;whiteSpace=wrap;html=1;" vertex="1" parent="1">
          <mxGeometry x="250" y="320" width="120" height="60" as="geometry" />
        </mxCell>
        <mxCell id="rv7XRUc5QI8uWNA1ESyG-13" style="edgeStyle=orthogonalEdgeStyle;rounded=0;orthogonalLoop=1;jettySize=auto;html=1;exitX=0;exitY=0.5;exitDx=0;exitDy=0;entryX=1;entryY=0.5;entryDx=0;entryDy=0;" edge="1" parent="1" source="rv7XRUc5QI8uWNA1ESyG-12" target="rv7XRUc5QI8uWNA1ESyG-10">
          <mxGeometry relative="1" as="geometry" />
        </mxCell>
        <mxCell id="rv7XRUc5QI8uWNA1ESyG-12" value="b824d3c1-55a3-479d-bfaa-e66a9c774fef" style="rounded=0;whiteSpace=wrap;html=1;" vertex="1" parent="1">
          <mxGeometry x="413.5" y="320" width="120" height="60" as="geometry" />
        </mxCell>
        <mxCell id="rv7XRUc5QI8uWNA1ESyG-21" style="edgeStyle=orthogonalEdgeStyle;rounded=0;orthogonalLoop=1;jettySize=auto;html=1;exitX=0;exitY=0.5;exitDx=0;exitDy=0;entryX=0.5;entryY=0;entryDx=0;entryDy=0;" edge="1" parent="1" source="rv7XRUc5QI8uWNA1ESyG-14" target="rv7XRUc5QI8uWNA1ESyG-19">
          <mxGeometry relative="1" as="geometry">
            <mxPoint x="140" y="490" as="targetPoint" />
          </mxGeometry>
        </mxCell>
        <mxCell id="rv7XRUc5QI8uWNA1ESyG-14" value="bfe858d5-4159-4450-96d4-bfd05ffa2af4" style="rounded=0;whiteSpace=wrap;html=1;" vertex="1" parent="1">
          <mxGeometry x="370" y="450" width="120" height="60" as="geometry" />
        </mxCell>
        <mxCell id="rv7XRUc5QI8uWNA1ESyG-17" style="edgeStyle=orthogonalEdgeStyle;rounded=0;orthogonalLoop=1;jettySize=auto;html=1;exitX=0;exitY=0.5;exitDx=0;exitDy=0;entryX=1;entryY=0.5;entryDx=0;entryDy=0;" edge="1" parent="1" source="rv7XRUc5QI8uWNA1ESyG-15" target="rv7XRUc5QI8uWNA1ESyG-14">
          <mxGeometry relative="1" as="geometry" />
        </mxCell>
        <mxCell id="rv7XRUc5QI8uWNA1ESyG-15" value="32861307-16e2-4fbb-8504-af3f49ad46c2" style="rounded=0;whiteSpace=wrap;html=1;" vertex="1" parent="1">
          <mxGeometry x="530" y="450" width="120" height="60" as="geometry" />
        </mxCell>
        <mxCell id="rv7XRUc5QI8uWNA1ESyG-18" style="edgeStyle=orthogonalEdgeStyle;rounded=0;orthogonalLoop=1;jettySize=auto;html=1;exitX=0;exitY=0.5;exitDx=0;exitDy=0;entryX=0.5;entryY=1;entryDx=0;entryDy=0;" edge="1" parent="1" source="rv7XRUc5QI8uWNA1ESyG-16" target="rv7XRUc5QI8uWNA1ESyG-14">
          <mxGeometry relative="1" as="geometry" />
        </mxCell>
        <mxCell id="rv7XRUc5QI8uWNA1ESyG-16" value="69e00afe-20af-4909-976a-7a77a327f10a" style="rounded=0;whiteSpace=wrap;html=1;" vertex="1" parent="1">
          <mxGeometry x="530" y="540" width="120" height="60" as="geometry" />
        </mxCell>
        <mxCell id="rv7XRUc5QI8uWNA1ESyG-19" value="cf064fd6-f324-4a2f-9dc0-3f27a2e789c5" style="rounded=0;whiteSpace=wrap;html=1;" vertex="1" parent="1">
          <mxGeometry x="90" y="500" width="120" height="60" as="geometry" />
        </mxCell>
        <mxCell id="rv7XRUc5QI8uWNA1ESyG-22" style="edgeStyle=orthogonalEdgeStyle;rounded=0;orthogonalLoop=1;jettySize=auto;html=1;exitX=0;exitY=0.5;exitDx=0;exitDy=0;entryX=0.5;entryY=1;entryDx=0;entryDy=0;" edge="1" parent="1" source="rv7XRUc5QI8uWNA1ESyG-20" target="rv7XRUc5QI8uWNA1ESyG-19">
          <mxGeometry relative="1" as="geometry" />
        </mxCell>
        <mxCell id="rv7XRUc5QI8uWNA1ESyG-20" value="41ac78d2-df5b-4078-a022-fa6f44f0a31d" style="rounded=0;whiteSpace=wrap;html=1;" vertex="1" parent="1">
          <mxGeometry x="370" y="610" width="120" height="60" as="geometry" />
        </mxCell>
      </root>
    </mxGraphModel>
  </diagram>
</mxfile>
